<?xml version="1.0" standalone="no"?>
<!DOCTYPE svg PUBLIC "-//W3C//DTD SVG 20010904//EN"
 "http://www.w3.org/TR/2001/REC-SVG-20010904/DTD/svg10.dtd">
<svg version="1.0" xmlns="http://www.w3.org/2000/svg"
 width="389.000000pt" height="120.000000pt" viewBox="0 0 389.000000 120.000000"
 preserveAspectRatio="xMidYMid meet">

<g transform="translate(0.000000,120.000000) scale(0.100000,-0.100000)"
fill="#000000" stroke="none">
<path d="M3283 945 c-41 -25 -83 -90 -83 -128 0 -14 -10 -17 -58 -17 -94 0
-92 7 -92 -283 0 -210 2 -248 16 -261 13 -14 56 -16 319 -16 347 0 335 -3 335
81 l0 49 -109 0 c-103 0 -111 2 -140 26 -39 33 -50 83 -27 131 23 48 65 63
181 63 l96 0 -3 48 c-3 43 -5 48 -35 57 -18 5 -33 15 -33 22 0 42 -44 83 -89
83 -13 0 -21 10 -25 32 -24 118 -150 174 -253 113z m170 -21 c40 -28 71 -98
64 -141 -11 -64 -31 -83 -87 -83 -42 0 -50 3 -50 19 0 12 9 21 25 25 18 5 25
13 25 29 0 33 -19 47 -62 47 -27 0 -38 4 -38 15 0 11 12 15 50 15 28 0 50 5
50 10 0 6 -11 10 -25 10 -16 0 -25 6 -25 15 0 8 -4 15 -10 15 -5 0 -10 -5 -10
-10 0 -6 -11 -15 -25 -20 -17 -7 -25 -17 -25 -34 0 -30 25 -46 70 -46 51 0 30
-25 -23 -28 -49 -3 -64 -18 -25 -24 13 -2 24 -11 26 -20 3 -15 -4 -18 -47 -18
-43 0 -53 4 -67 25 -42 65 -15 168 56 207 43 24 115 20 153 -8z m-250 -161 c2
-10 8 -26 12 -36 7 -16 1 -18 -66 -15 -62 3 -74 6 -77 21 -6 32 17 47 73 47
42 0 54 -4 58 -17z m410 -15 c27 -32 21 -38 -38 -38 -30 0 -55 2 -55 4 0 1 5
18 11 35 10 28 15 32 38 26 14 -3 34 -15 44 -27z"/>
<path d="M295 903 c-25 -7 -75 -42 -75 -53 0 -5 15 -6 33 -3 47 7 60 -13 107
-172 23 -77 49 -148 57 -157 9 -9 37 -24 64 -33 53 -18 89 -54 89 -91 0 -46
19 -33 30 21 12 57 75 195 90 195 4 0 11 -15 14 -33 9 -51 28 -69 98 -97 60
-24 64 -27 78 -72 8 -27 17 -48 20 -48 3 0 10 26 16 58 12 60 27 96 86 199 47
81 87 181 94 238 l7 45 -114 0 -113 0 27 -27 c44 -46 71 -120 71 -193 -1 -54
-7 -78 -35 -137 l-35 -73 -12 68 c-16 91 -68 249 -97 293 -26 40 -95 79 -140
79 -35 0 -115 -37 -115 -53 0 -7 16 -12 37 -12 34 0 40 -4 57 -39 11 -23 21
-69 24 -112 4 -65 2 -78 -28 -143 -18 -39 -35 -69 -37 -67 -3 2 -11 35 -19 73
-21 105 -70 241 -100 280 -42 55 -115 82 -179 66z"/>
<path d="M2684 877 c-13 -45 -62 -74 -142 -83 -52 -6 -60 -9 -37 -13 l30 -6 5
-165 c3 -104 10 -173 17 -187 40 -69 127 -85 186 -33 44 38 65 38 81 -1 l13
-31 7 27 c10 37 -11 129 -33 149 -10 9 -34 19 -53 23 -32 5 -41 0 -92 -46 -31
-28 -60 -51 -65 -51 -26 0 -41 15 -41 39 0 23 8 31 51 51 80 38 99 67 99 155
l0 74 63 4 62 3 -62 2 -63 2 0 54 c0 63 -12 79 -26 33z"/>
<path d="M1640 670 c0 -126 -4 -230 -9 -230 -24 0 -31 33 -30 132 1 78 -2 111
-14 135 -49 94 -171 117 -299 58 -62 -28 -93 -27 -103 6 -4 10 -11 19 -17 19
-7 0 -9 -21 -5 -62 5 -51 10 -67 32 -85 54 -47 112 -16 142 77 15 46 22 55 44
58 43 5 53 -20 50 -125 l-1 -43 -71 0 c-92 0 -153 -16 -189 -50 -25 -23 -30
-36 -30 -75 0 -80 67 -125 187 -125 63 0 103 14 103 36 0 12 6 10 31 -10 35
-30 90 -34 144 -12 31 13 35 13 35 0 0 -11 17 -14 85 -14 l85 0 -2 228 -3 227
-45 14 c-79 24 -92 31 -97 51 -16 60 -23 -5 -23 -210z m-235 -76 c18 -5 20
-12 17 -99 -4 -106 -14 -126 -58 -106 -26 12 -74 99 -74 136 0 29 26 63 53 68
36 7 41 7 62 1z"/>
<path d="M1850 630 l0 -270 85 0 85 0 -2 228 -3 227 -45 14 c-79 24 -92 31
-97 51 -16 63 -23 -9 -23 -250z"/>
<path d="M2197 783 c-175 -59 -192 -314 -26 -397 67 -33 180 -36 244 -7 42 19
122 87 113 97 -3 3 -27 -9 -54 -25 -84 -54 -150 -36 -222 59 -31 40 -32 45
-16 51 108 41 138 56 168 85 41 40 49 90 19 116 -46 39 -143 48 -226 21z m58
-35 c15 -12 34 -37 42 -55 12 -31 12 -38 -4 -66 -10 -17 -33 -37 -51 -44 l-32
-13 -23 48 c-35 70 -41 100 -22 128 19 30 54 31 90 2z"/>
<path d="M3523 553 c-36 -7 -66 -52 -59 -88 11 -56 34 -65 173 -65 l124 0 -3
78 -3 77 -105 1 c-58 1 -115 0 -127 -3z m217 -78 l0 -55 -105 0 c-99 0 -108 2
-130 24 -16 17 -23 31 -18 43 14 40 23 43 139 43 l114 0 0 -55z"/>
<path d="M3530 481 c0 -15 6 -21 21 -21 25 0 22 33 -4 38 -12 2 -17 -3 -17
-17z"/>
</g>
</svg>
